<?xml version="1.0" encoding="UTF-8" standalone="no"?>
<svg
   xmlns:dc="http://purl.org/dc/elements/1.1/"
   xmlns:cc="http://creativecommons.org/ns#"
   xmlns:rdf="http://www.w3.org/1999/02/22-rdf-syntax-ns#"
   xmlns:svg="http://www.w3.org/2000/svg"
   xmlns="http://www.w3.org/2000/svg"
   xmlns:sodipodi="http://sodipodi.sourceforge.net/DTD/sodipodi-0.dtd"
   xmlns:inkscape="http://www.inkscape.org/namespaces/inkscape"
   inkscape:version="1.0 (4035a4fb49, 2020-05-01)"
   inkscape:export-ydpi="51.789474"
   inkscape:export-xdpi="51.789474"
   inkscape:export-filename="/home/nick/projects/rust/zeitplan/src-tauri/icons/StoreLogo.png"
   sodipodi:docname="Zeitplan.svg"
   id="svg1754"
   version="1.1"
   fill="none"
   viewBox="0 0 76 92"
   height="92"
   width="76">
  <metadata
     id="metadata1758">
    <rdf:RDF>
      <cc:Work
         rdf:about="">
        <dc:format>image/svg+xml</dc:format>
        <dc:type
           rdf:resource="http://purl.org/dc/dcmitype/StillImage" />
        <dc:title></dc:title>
      </cc:Work>
    </rdf:RDF>
  </metadata>
  <sodipodi:namedview
     inkscape:current-layer="svg1754"
     inkscape:window-maximized="0"
     inkscape:window-y="0"
     inkscape:window-x="0"
     inkscape:cy="46"
     inkscape:cx="34.903846"
     inkscape:zoom="9.0434783"
     showgrid="false"
     id="namedview1756"
     inkscape:window-height="1380"
     inkscape:window-width="1276"
     inkscape:pageshadow="2"
     inkscape:pageopacity="0"
     guidetolerance="10"
     gridtolerance="10"
     objecttolerance="10"
     borderopacity="1"
     bordercolor="#666666"
     pagecolor="#ffffff" />
  <g
     id="g1712"
     filter="url(#filter0_i)">
    <path
       id="path1710"
       fill="black"
       d="M62.664 1.864C66.024 1.864 68.376 2.44 69.72 3.59199C71.16 4.648 71.88 6.424 71.88 8.91999C71.88 11.128 71.256 13.192 70.008 15.112C68.76 17.032 67.224 19.096 65.4 21.304L17.016 80.632H39.048C43.176 80.632 46.392 80.248 48.696 79.48C51 78.616 52.776 77.608 54.024 76.456C55.272 75.304 56.184 74.008 56.76 72.568C57.336 71.128 57.912 69.832 58.488 68.68C59.064 67.528 59.832 66.568 60.792 65.8C61.848 64.936 63.432 64.504 65.544 64.504C68.712 64.504 70.968 65.32 72.312 66.952C73.752 68.488 74.472 70.744 74.472 73.72C74.472 75.736 73.704 77.8 72.168 79.912C70.632 81.928 68.424 83.8 65.544 85.528C62.664 87.16 59.16 88.504 55.032 89.56C50.904 90.52 46.296 91 41.208 91H9.816C6.744 91 4.536 90.472 3.192 89.416C1.944 88.36 1.32 86.728 1.32 84.52C1.32 82.504 2.856 79.384 5.928 75.16C9 70.936 12.984 65.896 17.88 60.04L57.192 12.52H36.024C31.608 12.52 28.152 12.904 25.656 13.672C23.256 14.344 21.432 15.256 20.184 16.408C19.032 17.464 18.216 18.664 17.736 20.008C17.352 21.256 16.92 22.456 16.44 23.608C15.96 24.664 15.288 25.576 14.424 26.344C13.56 27.016 12.072 27.352 9.96 27.352C7.464 27.352 5.736 26.68 4.776 25.336C3.816 23.992 3.336 21.784 3.336 18.712C3.336 16.408 3.816 14.248 4.776 12.232C5.736 10.12 7.272 8.344 9.384 6.90399C11.496 5.368 14.232 4.168 17.592 3.304C21.048 2.344 25.224 1.864 30.12 1.864H62.664Z" />
  </g>
  <path
     id="path1714"
     fill="black"
     d="M69.72 3.59199L69.0692 4.35125L69.098 4.37595L69.1286 4.3984L69.72 3.59199ZM70.008 15.112L70.8464 15.657L70.8464 15.657L70.008 15.112ZM65.4 21.304L64.629 20.6671L64.625 20.672L65.4 21.304ZM17.016 80.632L16.241 80L14.9101 81.632H17.016V80.632ZM48.696 79.48L49.0122 80.4287L49.0298 80.4228L49.0471 80.4163L48.696 79.48ZM54.024 76.456L54.7023 77.1908L54.7023 77.1908L54.024 76.456ZM58.488 68.68L57.5936 68.2328L57.5936 68.2328L58.488 68.68ZM60.792 65.8L61.4167 66.5809L61.4252 66.574L60.792 65.8ZM72.312 66.952L71.5401 67.5877L71.5605 67.6125L71.5825 67.6359L72.312 66.952ZM72.168 79.912L72.9634 80.518L72.9702 80.5092L72.9767 80.5002L72.168 79.912ZM65.544 85.528L66.037 86.398L66.0478 86.3919L66.0585 86.3855L65.544 85.528ZM55.032 89.56L55.2585 90.534L55.2692 90.5315L55.2798 90.5288L55.032 89.56ZM3.192 89.416L2.54606 90.1794L2.55991 90.1911L2.57418 90.2023L3.192 89.416ZM17.88 60.04L18.6472 60.6814L18.6505 60.6774L17.88 60.04ZM57.192 12.52L57.9625 13.1574L59.3171 11.52H57.192V12.52ZM25.656 13.672L25.9256 14.635L25.9379 14.6315L25.9501 14.6278L25.656 13.672ZM20.184 16.408L20.8597 17.1452L20.8623 17.1428L20.184 16.408ZM17.736 20.008L16.7943 19.6717L16.7868 19.6926L16.7802 19.7139L17.736 20.008ZM16.44 23.608L17.3504 24.0218L17.357 24.0073L17.3631 23.9926L16.44 23.608ZM14.424 26.344L15.0379 27.1333L15.0638 27.1132L15.0884 27.0914L14.424 26.344ZM4.776 25.336L3.96227 25.9172L3.96227 25.9172L4.776 25.336ZM4.776 12.232L5.67886 12.6619L5.68269 12.6539L5.68637 12.6458L4.776 12.232ZM9.384 6.90399L9.94734 7.73022L9.95989 7.72166L9.97217 7.71273L9.384 6.90399ZM17.592 3.304L17.841 4.27249L17.8504 4.27009L17.8596 4.26751L17.592 3.304ZM62.664 2.864C65.9722 2.864 68.0104 3.4437 69.0692 4.35125L70.3708 2.83274C68.7416 1.43629 66.0758 0.863997 62.664 0.863997V2.864ZM69.1286 4.3984C70.2192 5.19811 70.88 6.60696 70.88 8.91999H72.88C72.88 6.24103 72.1009 4.09788 70.3114 2.78559L69.1286 4.3984ZM70.88 8.91999C70.88 10.9271 70.3163 12.8029 69.1696 14.567L70.8464 15.657C72.1958 13.5811 72.88 11.3289 72.88 8.91999H70.88ZM69.1696 14.567C67.9467 16.4484 66.4345 18.4815 64.629 20.6671L66.171 21.9409C68.0135 19.7105 69.5733 17.6156 70.8464 15.657L69.1696 14.567ZM64.625 20.672L16.241 80L17.791 81.264L66.175 21.936L64.625 20.672ZM17.016 81.632H39.048V79.632H17.016V81.632ZM39.048 81.632C43.2194 81.632 46.5594 81.2463 49.0122 80.4287L48.3798 78.5313C46.2246 79.2497 43.1326 79.632 39.048 79.632V81.632ZM49.0471 80.4163C51.4224 79.5256 53.3268 78.4605 54.7023 77.1908L53.3457 75.7212C52.2252 76.7555 50.5776 77.7064 48.3449 78.5437L49.0471 80.4163ZM54.7023 77.1908C56.0492 75.9475 57.0521 74.5304 57.6885 72.9394L55.8315 72.1966C55.3159 73.4856 54.4949 74.6605 53.3457 75.7212L54.7023 77.1908ZM57.6885 72.9394C58.2562 71.5201 58.821 70.25 59.3824 69.1272L57.5936 68.2328C57.003 69.414 56.4158 70.7359 55.8315 72.1966L57.6885 72.9394ZM59.3824 69.1272C59.8969 68.0983 60.5751 67.2542 61.4167 66.5809L60.1673 65.0191C59.0889 65.8818 58.2311 66.9577 57.5936 68.2328L59.3824 69.1272ZM61.4252 66.574C62.2277 65.9174 63.5429 65.504 65.544 65.504V63.504C63.3212 63.504 61.4683 63.9546 60.1588 65.026L61.4252 66.574ZM65.544 65.504C68.5651 65.504 70.4651 66.2824 71.5401 67.5877L73.0839 66.3163C71.4709 64.3576 68.8589 63.504 65.544 63.504V65.504ZM71.5825 67.6359C72.7881 68.9219 73.472 70.8929 73.472 73.72H75.472C75.472 70.5951 74.7159 68.0541 73.0415 66.2681L71.5825 67.6359ZM73.472 73.72C73.472 75.4698 72.8077 77.3323 71.3593 79.3238L72.9767 80.5002C74.6004 78.2677 75.472 76.0022 75.472 73.72H73.472ZM71.3726 79.306C69.934 81.1941 67.8342 82.9877 65.0295 84.6705L66.0585 86.3855C69.0138 84.6123 71.33 82.6619 72.9634 80.518L71.3726 79.306ZM65.051 84.658C62.2663 86.2359 58.8496 87.5512 54.7842 88.5912L55.2798 90.5288C59.4704 89.4568 63.0617 88.0841 66.037 86.398L65.051 84.658ZM54.8055 88.586C50.7648 89.5257 46.2344 90 41.208 90V92C46.3576 92 51.0432 91.5143 55.2585 90.534L54.8055 88.586ZM41.208 90H9.816V92H41.208V90ZM9.816 90C6.80998 90 4.88428 89.4739 3.80982 88.6297L2.57418 90.2023C4.18772 91.4701 6.67802 92 9.816 92V90ZM3.83794 88.6526C2.88616 87.8473 2.32 86.5428 2.32 84.52H0.32C0.32 86.9132 1.00184 88.8727 2.54606 90.1794L3.83794 88.6526ZM2.32 84.52C2.32 83.7385 2.62647 82.6183 3.36917 81.1097C4.10277 79.6196 5.21943 77.8345 6.73674 75.7482L5.11926 74.5718C3.56457 76.7095 2.37723 78.5964 1.57483 80.2263C0.781531 81.8377 0.32 83.2855 0.32 84.52H2.32ZM6.73674 75.7482C9.79099 71.5486 13.7597 66.5272 18.6472 60.6814L17.1128 59.3986C12.2083 65.2648 8.20901 70.3234 5.11926 74.5718L6.73674 75.7482ZM18.6505 60.6774L57.9625 13.1574L56.4215 11.8826L17.1095 59.4026L18.6505 60.6774ZM57.192 11.52H36.024V13.52H57.192V11.52ZM36.024 11.52C31.567 11.52 27.9965 11.9056 25.3619 12.7162L25.9501 14.6278C28.3075 13.9024 31.649 13.52 36.024 13.52V11.52ZM25.3864 12.709C22.8999 13.4053 20.9115 14.3755 19.5057 15.6732L20.8623 17.1428C21.9525 16.1365 23.6121 15.2827 25.9256 14.635L25.3864 12.709ZM19.5083 15.6708C18.248 16.8261 17.3341 18.1602 16.7943 19.6717L18.6777 20.3443C19.0979 19.1678 19.8161 18.1019 20.8597 17.1452L19.5083 15.6708ZM16.7802 19.7139C16.4052 20.9326 15.984 22.1023 15.5169 23.2234L17.3631 23.9926C17.856 22.8097 18.2988 21.5794 18.6918 20.3021L16.7802 19.7139ZM15.5296 23.1942C15.1072 24.1235 14.5189 24.9217 13.7596 25.5966L15.0884 27.0914C16.0571 26.2303 16.8128 25.2045 17.3504 24.0218L15.5296 23.1942ZM13.8101 25.5546C13.223 26.0113 12.0263 26.352 9.96 26.352V28.352C12.1177 28.352 13.897 28.0207 15.0379 27.1333L13.8101 25.5546ZM9.96 26.352C7.61485 26.352 6.28043 25.7217 5.58973 24.7548L3.96227 25.9172C5.19157 27.6383 7.31315 28.352 9.96 28.352V26.352ZM5.58973 24.7548C4.81723 23.6732 4.336 21.73 4.336 18.712H2.336C2.336 21.838 2.81477 24.3107 3.96227 25.9172L5.58973 24.7548ZM4.336 18.712C4.336 16.5519 4.78488 14.5393 5.67886 12.6619L3.87314 11.8021C2.84712 13.9567 2.336 16.2641 2.336 18.712H4.336ZM5.68637 12.6458C6.56304 10.7171 7.9707 9.07793 9.94734 7.73022L8.82066 6.07777C6.5733 7.61006 4.90896 9.52287 3.86563 11.8182L5.68637 12.6458ZM9.97217 7.71273C11.9548 6.27085 14.5653 5.11483 17.841 4.27249L17.343 2.3355C13.8987 3.22116 11.0372 4.46514 8.79583 6.09526L9.97217 7.71273ZM17.8596 4.26751C21.2033 3.33871 25.284 2.864 30.12 2.864V0.863997C25.164 0.863997 20.8927 1.34928 17.3244 2.34048L17.8596 4.26751ZM30.12 2.864H62.664V0.863997H30.12V2.864Z" />
  <g
     id="g1726"
     filter="url(#filter1_f)"
     opacity="0.84">
    <path
       id="path1716"
       fill-opacity="0.6"
       fill="#F1FF4F"
       d="M42 29.5L55 13.5C55.0417 13.2478 42 13 34 13.5C26 14 24 15.0001 22.5 16C21 17 19.1593 19.006 19 19.5C17.0263 24.2929 17.2468 25.9378 14.5 27.5L16.7724 29.5H42Z" />
    <path
       id="path1718"
       fill-opacity="0.6"
       fill="#F1FF4F"
       d="M14.5 27.5C13.3428 28.007 12.4326 28.216 10.5 28.5C8.63283 28.3952 8.14631 28.7798 7 28L28 45.99L31 42.125L14.5 27.5Z" />
    <path
       id="path1720"
       fill-opacity="0.6"
       fill="#F1FF4F"
       d="M56.5 70.5L58.5 66.5L42 51.875L39.0581 55.5L56.5 70.5Z" />
    <path
       id="path1722"
       fill-opacity="0.6"
       fill="#F1FF4F"
       d="M47 79.5H19C25.5 72 29.5 65 43.5 65C51.2602 65 65.5 72 47 79.5Z" />
    <path
       id="path1724"
       stroke="black"
       d="M42.3316 51.5009L41.9408 51.1545L31.6822 42.0616L31.3317 41.7508L18.0743 30H42H42.238L42.3881 29.8153L55.3881 13.8153L55.4717 13.7124L55.4933 13.5815C55.5443 13.2731 55.3174 13.1051 55.2776 13.0775C55.2126 13.0324 55.1497 13.0105 55.1233 13.0018C55.0609 12.9811 54.9933 12.9683 54.9395 12.9595C54.8238 12.9406 54.6656 12.924 54.4783 12.9088C54.0992 12.8779 53.5534 12.8492 52.8803 12.8237C51.5318 12.7725 49.6501 12.7335 47.5193 12.718C43.2594 12.6869 37.9857 12.7499 33.9688 13.001C25.9367 13.503 23.8316 14.5115 22.2227 15.584C21.4319 16.1111 20.569 16.8899 19.8883 17.5916C19.5464 17.9442 19.2433 18.2846 19.0126 18.5731C18.8975 18.7171 18.7967 18.8528 18.717 18.9739C18.6478 19.079 18.5748 19.2021 18.5318 19.3239C18.0362 20.5284 17.6781 21.5353 17.3788 22.3865C17.3599 22.4401 17.3414 22.493 17.323 22.5452C17.0466 23.3318 16.8243 23.9646 16.5829 24.5087C16.3287 25.0816 16.0619 25.5351 15.7096 25.9339C15.3616 26.3279 14.9136 26.6871 14.2754 27.0525C13.2 27.5212 12.3457 27.7221 10.4769 27.998C10.0142 27.9739 9.63453 27.9785 9.31262 27.9875C9.22554 27.99 9.14477 27.9926 9.06895 27.9951C8.84602 28.0024 8.66593 28.0083 8.49414 28.0033C8.08801 27.9916 7.77296 27.9211 7.28124 27.5866L6.67471 28.3797L27.674 46.3691L27.6747 46.3698L27.6749 46.3699L38.3637 55.5623L38.7321 55.8791L50.2788 65.8093C50.2168 65.7862 50.1547 65.7634 50.0924 65.7408C47.9087 64.9506 45.506 64.5 43.5 64.5C36.4034 64.5 31.7948 66.2785 28.1364 69.0384C25.3515 71.1393 23.1196 73.8145 20.7753 76.6246C20.0736 77.4658 19.3619 78.319 18.6221 79.1725L17.905 80H19H47H47.0975L47.1878 79.9634C51.8341 78.0798 54.5323 76.1893 55.7646 74.3485C56.39 73.4142 56.6456 72.4804 56.5667 71.5729C56.5548 71.4358 56.5354 71.3005 56.5089 71.1671L56.6603 71.2974L56.9472 70.7236L58.9472 66.7236L59.1188 66.3804L58.8317 66.1259L42.3316 51.5009ZM31.0677 42.8532L41.3101 51.9317L38.9941 54.7855L28.6865 45.921L31.0677 42.8532Z" />
  </g>
  <defs
     id="defs1752">
    <filter
       color-interpolation-filters="sRGB"
       filterUnits="userSpaceOnUse"
       height="95.136"
       width="75.152"
       y="0.863983"
       x="0.320007"
       id="filter0_i">
      <feFlood
         id="feFlood1728"
         result="BackgroundImageFix"
         flood-opacity="0" />
      <feBlend
         id="feBlend1730"
         result="shape"
         in2="BackgroundImageFix"
         in="SourceGraphic"
         mode="normal" />
      <feColorMatrix
         id="feColorMatrix1732"
         result="hardAlpha"
         values="0 0 0 0 0 0 0 0 0 0 0 0 0 0 0 0 0 0 127 0"
         type="matrix"
         in="SourceAlpha" />
      <feOffset
         id="feOffset1734"
         dy="4" />
      <feGaussianBlur
         id="feGaussianBlur1736"
         stdDeviation="2" />
      <feComposite
         id="feComposite1738"
         k3="1"
         k2="-1"
         operator="arithmetic"
         in2="hardAlpha" />
      <feColorMatrix
         id="feColorMatrix1740"
         values="0 0 0 0 0 0 0 0 0 0 0 0 0 0 0 0 0 0 0.25 0"
         type="matrix" />
      <feBlend
         id="feBlend1742"
         result="effect1_innerShadow"
         in2="shape"
         mode="normal" />
    </filter>
    <filter
       color-interpolation-filters="sRGB"
       filterUnits="userSpaceOnUse"
       height="74.2893"
       width="59.3882"
       y="9.21066"
       x="3.34941"
       id="filter1_f">
      <feFlood
         id="feFlood1745"
         result="BackgroundImageFix"
         flood-opacity="0" />
      <feBlend
         id="feBlend1747"
         result="shape"
         in2="BackgroundImageFix"
         in="SourceGraphic"
         mode="normal" />
      <feGaussianBlur
         id="feGaussianBlur1749"
         result="effect1_foregroundBlur"
         stdDeviation="1.5" />
    </filter>
  </defs>
</svg>
